<?xml version="1.0" standalone="no"?>
<!DOCTYPE svg PUBLIC "-//W3C//DTD SVG 20010904//EN"
 "http://www.w3.org/TR/2001/REC-SVG-20010904/DTD/svg10.dtd">
<svg version="1.0" xmlns="http://www.w3.org/2000/svg"
 width="260.000000pt" height="260.000000pt" viewBox="0 0 260.000000 260.000000"
 preserveAspectRatio="xMidYMid meet">
<metadata>
Created by potrace 1.11, written by Peter Selinger 2001-2013
</metadata>
<g transform="translate(0.000000,260.000000) scale(0.100000,-0.100000)"
fill="#000000" stroke="none">
<path d="M1110 2373 c-118 -23 -226 -44 -240 -46 -48 -6 -49 -10 -45 -145 2
-70 5 -191 6 -269 2 -96 6 -143 14 -143 6 0 35 6 65 14 30 7 144 35 252 61
l197 49 -4 120 c-2 67 -5 183 -6 258 -1 88 -6 138 -13 141 -6 2 -108 -16 -226
-40z"/>
<path d="M1200 1624 c0 -5 -17 -30 -37 -55 -41 -50 -187 -239 -295 -382 -38
-49 -68 -92 -68 -96 0 -4 21 -23 48 -43 26 -19 143 -108 260 -197 117 -89 217
-159 222 -156 6 4 38 43 72 88 35 45 68 89 75 97 46 55 264 343 261 345 -2 1
-57 42 -123 91 -66 49 -122 91 -125 94 -3 3 -59 46 -125 95 -66 50 -122 92
-125 95 -18 18 -40 31 -40 24z"/>
<path d="M2034 1305 c-10 -22 -22 -41 -26 -43 -5 -2 -8 -8 -8 -13 0 -5 -21
-53 -46 -106 -26 -54 -66 -138 -89 -188 -24 -49 -81 -170 -129 -269 -47 -98
-86 -180 -86 -182 0 -2 -25 -54 -56 -116 -30 -62 -61 -127 -69 -144 -12 -30
-12 -31 9 -26 34 9 145 70 221 123 73 51 147 118 203 185 42 49 107 181 128
259 33 122 23 368 -20 515 l-13 45 -19 -40z"/>
<path d="M485 1005 c13 -158 58 -310 128 -430 22 -38 45 -75 51 -81 6 -6 30
-32 54 -58 68 -74 194 -151 317 -194 56 -20 200 -50 264 -56 l64 -6 -19 22
c-18 20 -242 250 -679 693 l-187 190 7 -80z"/>
</g>
</svg>
